<?xml version="1.0" encoding="UTF-8" standalone="no"?>
<svg width="26px" height="23px" viewBox="0 0 26 23" version="1.1" xmlns="http://www.w3.org/2000/svg" xmlns:xlink="http://www.w3.org/1999/xlink">
    <!-- Generator: Sketch 46.2 (44496) - http://www.bohemiancoding.com/sketch -->
    <title>ravelry copy 5</title>
    <desc>Created with Sketch.</desc>
    <defs></defs>
    <g id="Dawa" stroke="none" stroke-width="1" fill="none" fill-rule="evenodd">
        <g id="BioPub-header" transform="translate(-19.000000, -21.000000)" fill-rule="nonzero" fill="#FFFFFF">
            <g id="Group-6" transform="translate(19.000000, 21.000000)">
                <g id="ravelry-copy-5">
                    <path d="M13.6872362,22.2675128 C13.6379532,22.2582991 13.5924038,22.2406396 13.5505879,22.2145342 C13.4415679,22.1469672 13.2914787,22.048688 13.1003204,21.9196966 C12.909162,21.7907051 12.5507401,21.5119914 12.0250547,21.0835555 C11.4993692,20.6551196 11.0140062,20.2074886 10.5689657,19.7406623 C10.1239252,19.2738361 9.65723001,18.6741794 9.16888017,17.9416922 C8.68053034,17.209205 8.30792091,16.4698076 8.05105188,15.7234999 C7.90917654,15.6989301 7.17963864,15.540762 5.86243817,15.2489956 C6.41201841,17.0733033 7.39095822,18.624272 8.79925759,19.9019017 C10.207557,21.1795313 11.8368832,21.9680684 13.6872362,22.2675128 Z M5.67426667,14.4773503 L7.77551504,14.8366836 C7.5664356,14.1855839 7.39543849,13.4684528 7.2625237,12.6852904 C7.12960892,11.902128 7.05045741,11.2786693 7.0250692,10.8149143 L6.97578619,10.1331023 C6.27537006,10.8348773 5.77059255,11.7946351 5.46145367,13.0123759 C5.50326956,13.5698032 5.57420722,14.058128 5.67426667,14.4773503 Z M7.0497107,6.65033302 C6.6912888,7.19854671 6.37020252,7.8327547 6.08645185,8.55295699 C6.4538343,8.15830456 6.76222647,7.86653817 7.01162838,7.67765783 L7.0497107,6.65033302 Z M25.0133682,12.2292135 C25.0133682,10.8486978 24.7550057,9.53267781 24.2382808,8.28115357 C23.7215559,7.02962933 23.0233799,5.95009369 22.1437529,5.04254667 C21.2641258,4.13499964 20.2209687,3.41326174 19.0142817,2.87733295 C17.8075946,2.34140416 16.5404239,2.07343977 15.2127694,2.07343977 C13.9881613,2.07343977 12.8173164,2.29840701 11.7002348,2.74834149 C10.5831532,3.19827598 9.58330549,3.83478738 8.70069157,4.65787572 C8.44979624,5.15387858 8.26237146,5.83952959 8.13841722,6.71482875 C8.63722102,6.27717917 9.23309743,5.91938144 9.92604643,5.64143557 C10.6189954,5.36348969 11.2790891,5.17921618 11.9063274,5.08861504 C12.5335657,4.9980139 13.1294421,4.93966062 13.6939566,4.91355521 C14.2584711,4.8874498 14.7109788,4.89205663 15.0514796,4.92737572 L15.5510301,4.96653384 C15.8258202,4.97421191 16.046847,5.04024325 16.2141106,5.16462787 C16.3813742,5.28901248 16.482927,5.43028884 16.5187692,5.58845693 C16.5546114,5.74662503 16.5822398,5.90556093 16.6016543,6.06526463 C16.6210688,6.22496834 16.6165885,6.34704954 16.5882135,6.43150823 C15.538336,6.33630025 14.5900114,6.33399683 13.7432396,6.42459797 C12.8964679,6.51519912 12.1340747,6.70177604 11.4560599,6.98432875 C10.7780452,7.26688147 10.1844089,7.57323617 9.6751511,7.90339287 C9.16589332,8.23354958 8.62004664,8.65507523 8.03761106,9.16796982 C8.0704664,9.47662795 8.11825598,9.8735838 8.18097982,10.3588374 C8.24370365,10.8440909 8.39155268,11.6065226 8.62452691,12.6461323 C8.85750115,13.685742 9.1158636,14.4550839 9.39961427,14.954158 C10.425597,15.0048332 11.4568066,14.9426409 12.4932433,14.767581 C13.5296799,14.5925212 14.4234945,14.3629471 15.1746871,14.0788588 C15.9258797,13.7947705 16.6031477,13.5076109 17.2064912,13.2173802 C17.8098348,12.9271494 18.266076,12.6745411 18.5752149,12.4595554 L19.0389232,12.1508972 C19.2226144,12.0142277 19.3868911,11.9266978 19.5317533,11.8883075 C19.6766155,11.8499172 19.8035566,11.8714157 19.9125766,11.9528032 C20.0215966,12.0341907 20.0925342,12.1816095 20.1253896,12.3950596 C20.2418767,13.225826 20.0798401,13.7440953 19.6392799,13.9498673 C17.9054139,14.7821694 15.9594817,15.3564885 13.8014832,15.6728246 C12.6754411,15.8448133 11.354507,15.913148 9.83868109,15.8778289 C10.1791819,16.7009173 10.6369165,17.4572064 11.211885,18.1466965 C11.7868535,18.8361865 12.3580884,19.3805612 12.9255897,19.7798205 C13.493091,20.1790797 14.0366976,20.5176823 14.5564093,20.7956282 C15.0761211,21.073574 15.4995069,21.260151 15.8265669,21.3553589 L16.3126766,21.509688 C17.5044294,21.7062464 18.6006031,21.6417507 19.6011975,21.3162008 C21.2260435,20.4670071 22.5342834,19.2285355 23.5259173,17.6007862 C24.5175512,15.9730369 25.0133682,14.1825127 25.0133682,12.2292135 Z M25.9385447,11.7524058 C25.8220576,12.908722 25.6555408,13.8170369 25.4389942,14.4773503 C24.8550652,16.2601965 24.0986456,17.7451338 23.1697356,18.9321623 C22.2408255,20.1191908 20.9139177,21.2048689 19.1890124,22.1891966 C18.7887746,22.4717493 18.4467803,22.6606296 18.1630297,22.7558376 C17.562673,22.9785014 16.8839115,23.0468362 16.1267453,22.9608419 C15.8265669,22.9869473 15.5219083,23 15.2127694,23 C12.854652,23 10.7526569,22.2582991 8.90678416,20.7748974 C7.06091139,19.2914957 5.82958282,17.3980854 5.21279848,15.0946665 C5.20383793,15.0946665 5.18741026,15.0923631 5.16351546,15.0877563 C5.13962067,15.0831494 5.11871273,15.080846 5.10079163,15.080846 C5.0500152,15.5092819 5.06046917,15.9914643 5.13215355,16.527393 C5.20383793,17.0633218 5.31211121,17.5562535 5.45697339,18.0061879 C5.60183558,18.4561224 5.75192475,18.8761125 5.9072409,19.266158 C6.06255706,19.6562036 6.19323171,19.9625583 6.29926485,20.1852222 L6.47399553,20.5192179 C6.54119963,20.6221039 6.76670674,20.9729914 7.15051686,21.5718803 C6.55912073,21.2463305 6.04015569,20.7902535 5.59362174,20.2036495 C5.14708779,19.6170455 4.82002781,19.0173888 4.6124418,18.4046794 C4.40485578,17.79197 4.24057908,17.2045982 4.11961169,16.642564 C3.9986443,16.0805298 3.92546649,15.619846 3.90007828,15.2605127 L3.87543677,14.7215127 C3.83362088,14.7046209 3.69398568,14.6508745 3.45653118,14.5602733 C3.21907667,14.4696722 3.01671764,14.3928916 2.84945409,14.3299315 C2.68219053,14.2669713 2.4611637,14.1786736 2.18637358,14.0650383 C1.91158345,13.951403 1.67263552,13.8446779 1.46952978,13.7448631 C1.26642404,13.6450483 1.05809131,13.5360198 0.844531597,13.4177776 C0.630971883,13.2995354 0.453254358,13.1835967 0.311379024,13.0699613 C0.169503689,12.956326 0.0657106813,12.8472975 0,12.7428759 C0.158303005,12.8288702 0.36887587,12.9378987 0.631718595,13.0699613 C0.89456132,13.202024 1.36499006,13.3970468 2.04300482,13.6550297 C2.72101957,13.9130126 3.32734995,14.0757876 3.86199595,14.1433545 L3.88663745,13.7310426 C3.97922978,12.4549485 4.37125373,11.212638 5.06270931,10.0041109 C5.40470353,8.2734755 6.137975,6.70945411 7.2625237,5.31204667 C7.49549794,4.32771902 7.83301189,3.41095832 8.27506556,2.56176457 C8.40051323,2.32220901 8.53417473,2.12948963 8.67605006,1.98360644 C8.8179254,1.83772324 9.02177785,1.70028592 9.28760743,1.57129446 C10.6048079,0.937086474 11.8697385,0.49175883 13.0823993,0.235311532 C14.29506,-0.0211357663 15.5532702,-0.0679719496 16.8570299,0.0948029823 C18.1607895,0.257577914 19.4376675,0.672961113 20.6876639,1.34095258 C22.5215893,2.32681585 23.9097274,3.76645262 24.8520783,5.65986292 C25.7944292,7.55327321 26.1565847,9.58412083 25.9385447,11.7524058 Z" id="Shape"></path>
                </g>
            </g>
        </g>
    </g>
</svg>