<?xml version="1.0" encoding="UTF-8" standalone="no"?>
<svg width="30px" height="30px" viewBox="0 0 30 30" version="1.1" xmlns="http://www.w3.org/2000/svg" xmlns:xlink="http://www.w3.org/1999/xlink">
    <!-- Generator: Sketch 46.2 (44496) - http://www.bohemiancoding.com/sketch -->
    <title>Twitter Copy</title>
    <desc>Created with Sketch.</desc>
    <defs></defs>
    <g id="Dawa" stroke="none" stroke-width="1" fill="none" fill-rule="evenodd">
        <g id="Group-2" transform="translate(-458.000000, -102.000000)" fill="#FFFFFF">
            <g id="Group-Copy" transform="translate(408.000000, 0.000000)">
                <path d="M80,117 C80,125.284167 73.2841667,132 65,132 C56.7158333,132 50,125.284167 50,117 C50,108.715833 56.7158333,102 65,102 C73.2841667,102 80,108.715833 80,117 L80,117 Z M71.9183333,113.01 C71.445,113.22 70.9366667,113.361667 70.4025,113.425833 C70.9475,113.099167 71.3666667,112.581667 71.5633333,111.965 C71.0533333,112.2675 70.4883333,112.4875 69.8875,112.605833 C69.4058333,112.0925 68.72,111.7725 67.9608333,111.7725 C66.5025,111.7725 65.3208333,112.954167 65.3208333,114.411667 C65.3208333,114.618333 65.3441667,114.82 65.3891667,115.013333 C63.1958333,114.903333 61.2508333,113.8525 59.9491667,112.255833 C59.7225,112.645 59.5916667,113.098333 59.5916667,113.5825 C59.5916667,114.498333 60.0575,115.305833 60.7658333,115.779167 C60.3333333,115.765833 59.9266667,115.646667 59.5708333,115.449167 C59.57,115.46 59.57,115.470833 59.57,115.4825 C59.57,116.760833 60.48,117.828333 61.6875,118.07 C61.4658333,118.130833 61.2325,118.163333 60.9925,118.163333 C60.8216667,118.163333 60.6566667,118.146667 60.4958333,118.115833 C60.8316667,119.164167 61.8058333,119.9275 62.9608333,119.948333 C62.0575,120.656667 60.92,121.078333 59.6833333,121.078333 C59.47,121.078333 59.26,121.065833 59.0533333,121.041667 C60.2216667,121.79 61.6091667,122.2275 63.1,122.2275 C67.9541667,122.2275 70.6091667,118.205833 70.6091667,114.7175 C70.6091667,114.603333 70.6066667,114.489167 70.6016667,114.375833 C71.1175,114.004167 71.565,113.539167 71.9183333,113.01 L71.9183333,113.01 Z" id="Twitter-Copy"></path>
            </g>
        </g>
    </g>
</svg>