<?xml version="1.0" encoding="UTF-8" standalone="no"?>
<svg width="30px" height="30px" viewBox="0 0 30 30" version="1.1" xmlns="http://www.w3.org/2000/svg" xmlns:xlink="http://www.w3.org/1999/xlink">
    <!-- Generator: Sketch 46.2 (44496) - http://www.bohemiancoding.com/sketch -->
    <title>Linkedin Copy</title>
    <desc>Created with Sketch.</desc>
    <defs></defs>
    <g id="Dawa" stroke="none" stroke-width="1" fill="none" fill-rule="evenodd">
        <g id="Group-2" transform="translate(-508.000000, -102.000000)" fill="#FFFFFF">
            <g id="Group-Copy" transform="translate(408.000000, 0.000000)">
                <path d="M115.700833,114.973333 C115.705833,114.965 115.7125,114.956667 115.7175,114.948333 L115.7175,114.973333 L115.700833,114.973333 L115.700833,114.973333 Z M130,117 C130,125.284167 123.284167,132 115,132 C106.715833,132 100,125.284167 100,117 C100,108.715833 106.715833,102 115,102 C123.284167,102 130,108.715833 130,117 L130,117 Z M109.17,121.57 L111.733333,121.57 L111.733333,113.855 L109.17,113.855 L109.17,121.57 Z M111.9025,111.468333 C111.886667,110.711667 111.346667,110.135 110.469167,110.135 C109.591667,110.135 109.018333,110.711667 109.018333,111.468333 C109.018333,112.209167 109.574167,112.801667 110.435,112.801667 L110.451667,112.801667 C111.346667,112.801667 111.9025,112.209167 111.9025,111.468333 L111.9025,111.468333 Z M120.981667,117.146667 C120.981667,114.775833 119.715833,113.674167 118.028333,113.674167 C116.665833,113.674167 116.058333,114.4225 115.7175,114.948333 L115.7175,113.855 L113.153333,113.855 C113.1875,114.578333 113.153333,121.57 113.153333,121.57 L115.7175,121.57 L115.7175,117.261667 C115.7175,117.030833 115.733333,116.8 115.8025,116.635833 C115.9875,116.175 116.409167,115.6975 117.1175,115.6975 C118.045833,115.6975 118.416667,116.405 118.416667,117.4425 L118.416667,121.57 L120.981667,121.57 L120.981667,117.146667 L120.981667,117.146667 Z" id="Linkedin-Copy"></path>
            </g>
        </g>
    </g>
</svg>