<?xml version="1.0" encoding="UTF-8" standalone="no"?>
<svg width="30px" height="30px" viewBox="0 0 30 30" version="1.1" xmlns="http://www.w3.org/2000/svg" xmlns:xlink="http://www.w3.org/1999/xlink">
    <!-- Generator: Sketch 46.2 (44496) - http://www.bohemiancoding.com/sketch -->
    <title>Facebook Copy</title>
    <desc>Created with Sketch.</desc>
    <defs></defs>
    <g id="Dawa" stroke="none" stroke-width="1" fill="none" fill-rule="evenodd">
        <g id="Group-2" transform="translate(-408.000000, -102.000000)" fill="#FFFFFF">
            <g id="Group-Copy" transform="translate(408.000000, 0.000000)">
                <path d="M30,117 C30,125.284167 23.2841667,132 15,132 C6.71583333,132 0,125.284167 0,117 C0,108.715833 6.71583333,102 15,102 C23.2841667,102 30,108.715833 30,117 L30,117 Z M15.9025,117 L17.52,117 L17.735,114.979167 L15.9025,114.979167 L15.905,113.968333 C15.905,113.441667 15.955,113.159167 16.7125,113.159167 L17.7233333,113.159167 L17.7233333,111.138333 L16.105,111.138333 C14.1616667,111.138333 13.4766667,112.119167 13.4766667,113.766667 L13.4766667,114.979167 L12.265,114.979167 L12.265,117 L13.4766667,117 L13.4766667,122.861667 L15.9025,122.861667 L15.9025,117 L15.9025,117 Z" id="Facebook-Copy"></path>
            </g>
        </g>
    </g>
</svg>